<svg width="20" height="18" viewBox="0 0 20 18" fill="none" xmlns="http://www.w3.org/2000/svg">
<path d="M12.4471 0.470703C12.3203 0.470703 12.1914 0.505078 12.0732 0.58457L4.45703 5.5625H0.933594C0.744531 5.5625 0.589844 5.71719 0.589844 5.90625V12.0938C0.589844 12.2828 0.744531 12.4375 0.933594 12.4375H4.45703L12.0732 17.4154C12.1914 17.4928 12.3225 17.5293 12.4471 17.5293C12.8059 17.5293 13.1367 17.2436 13.1367 16.8396V1.16035C13.1367 0.756445 12.8059 0.470703 12.4471 0.470703ZM11.5898 15.252L5.30352 11.142L4.9168 10.8906H2.13672V7.10938H4.9168L5.30137 6.85801L11.5898 2.74805V15.252ZM19.0664 8.22656H16.3164C16.1273 8.22656 15.9727 8.38125 15.9727 8.57031V9.42969C15.9727 9.61875 16.1273 9.77344 16.3164 9.77344H19.0664C19.2555 9.77344 19.4102 9.61875 19.4102 9.42969V8.57031C19.4102 8.38125 19.2555 8.22656 19.0664 8.22656ZM18.1662 13.8512L15.7965 12.4826C15.7576 12.4603 15.7146 12.4459 15.6701 12.4402C15.6256 12.4345 15.5804 12.4377 15.5371 12.4494C15.4938 12.4612 15.4533 12.4814 15.4178 12.5088C15.3823 12.5363 15.3526 12.5704 15.3303 12.6094L14.9027 13.3506C14.8082 13.5139 14.8641 13.7244 15.0273 13.8189L17.3971 15.1875C17.436 15.2098 17.4789 15.2242 17.5234 15.2299C17.568 15.2356 17.6131 15.2325 17.6564 15.2207C17.6997 15.2089 17.7403 15.1887 17.7758 15.1613C17.8113 15.1338 17.841 15.0997 17.8633 15.0607L18.2908 14.3195C18.3854 14.1562 18.3273 13.9457 18.1662 13.8512ZM15.3281 5.39062C15.3504 5.42956 15.3801 5.46373 15.4156 5.49117C15.4511 5.51862 15.4917 5.5388 15.535 5.55057C15.5783 5.56234 15.6235 5.56547 15.668 5.55977C15.7125 5.55408 15.7554 5.53968 15.7943 5.51738L18.1641 4.14883C18.3273 4.0543 18.3832 3.84375 18.2887 3.68047L17.8633 2.94141C17.841 2.90247 17.8113 2.8683 17.7758 2.84086C17.7403 2.81342 17.6997 2.79323 17.6564 2.78146C17.6131 2.76969 17.568 2.76656 17.5234 2.77226C17.4789 2.77795 17.436 2.79236 17.3971 2.81465L15.0273 4.1832C14.9489 4.22894 14.8917 4.30389 14.8684 4.39166C14.845 4.47943 14.8574 4.57288 14.9027 4.65156L15.3281 5.39062Z" fill="#595959"/>
</svg>
